<svg xmlns="http://www.w3.org/2000/svg" viewBox="987.166 466.795 441.788 300.346" width="441.788px" height="300.344px"><path class="cls-0" d="m1047.029 523.797 -0.898 -0.599h-39.21l-1.796 0.599v77.223h-17.959v35.618h18.258v127.508h41.006v-127.508h43.401v-36.816h-42.802z" style="fill: rgb(50, 178, 228); stroke-width: 1;"/><path class="cls-0" d="M1120.66 466.927v295.423h49.088l-0.299 -295.423s-0.898 -0.299 -48.788 0" style="fill: rgb(50, 178, 228); stroke-width: 1;"/><path class="cls-0" d="M1425.362 579.17c-6.884 -26.34 -30.231 -74.23 -78.42 -96.679 -16.462 -7.782 -35.618 -13.768 -61.06 -13.768h-61.359v58.965h98.175v62.557h-99.372v176.895h65.251c13.768 -0.299 33.823 -2.095 53.577 -9.279 39.509 -14.068 86.801 -52.38 86.801 -138.283 0 -12.571 -1.497 -26.34 -3.592 -40.407m-102.665 83.808c-5.687 16.163 -32.326 44.897 -42.503 54.775 0 0 30.3 -42.61 19.267 -43.586 -17.276 -0.976 -23.858 -8.417 -23.858 -20.09 -0.299 -8.381 7.219 -20.904 19.755 -21.404 10.473 -0.419 16.513 3.418 20.105 6.411 5.388 4.789 8.662 10.967 7.522 21.931z" style="fill: rgb(50, 178, 228); stroke-width: 1;"/></svg>
